<svg width="416" height="244" viewBox="0 0 416 244" fill="none" xmlns="http://www.w3.org/2000/svg">
<path d="M321 72.975V68" stroke="#F2242B" stroke-width="7.5" stroke-linecap="round" stroke-linejoin="round"/>
<path d="M321 103.025V108" stroke="#F2242B" stroke-width="7.5" stroke-linecap="round" stroke-linejoin="round"/>
<path d="M312.33 99.395C313.625 101.515 315.83 102.98 318.5 102.98H321H323.975C327.85 102.98 330.99 99.84 330.99 95.965C330.99 92.75 328.805 89.94 325.68 89.165L316.32 86.815C313.2 86.03 311.01 83.225 311.01 80.015C311.01 76.14 314.15 73 318.025 73H321H323.5C326.16 73 328.365 74.46 329.665 76.565" stroke="#F2242B" stroke-width="7.5" stroke-linecap="round" stroke-linejoin="round"/>
<path fill-rule="evenodd" clip-rule="evenodd" d="M255.768 100.224L264.864 112.215L266.828 127.143C267.916 135.423 274.379 141.94 282.599 143.044L297.458 145.045L309.355 154.199C315.939 159.267 325.066 159.267 331.65 154.199L343.555 145.037H343.539L358.367 143.059C366.588 141.963 373.058 135.454 374.154 127.173L376.133 112.208C376.133 112.215 380.731 106.151 385.229 100.224C390.261 93.5925 390.253 84.3999 385.229 77.768L376.148 65.777L374.185 50.8496C373.096 42.5694 366.634 36.0525 358.413 34.9485L343.547 32.9551L331.65 23.8009C325.066 18.733 315.939 18.733 309.355 23.8009L297.45 32.9551H297.465L282.637 34.9408C274.417 36.0372 267.947 42.5464 266.851 50.8266L264.864 65.7924C264.864 65.7847 260.266 71.8492 255.768 77.7757C250.744 84.3999 250.744 93.6001 255.768 100.224V100.224Z" stroke="#F2242B" stroke-width="7.5" stroke-linecap="round" stroke-linejoin="round"/>
<path fill-rule="evenodd" clip-rule="evenodd" d="M219.858 106.406L234 125.001L237.053 148.149C238.746 160.989 248.793 171.095 261.574 172.807L284.675 175.91L303.172 190.106C313.409 197.965 327.598 197.965 337.835 190.106L356.344 175.898H356.321L379.374 172.831C392.155 171.131 402.214 161.037 403.918 148.196L406.995 124.989C406.995 125.001 414.143 115.596 421.138 106.406C428.96 96.1216 428.948 81.8665 421.138 71.5823L407.019 52.9876L403.966 29.8392C402.274 16.9989 392.226 6.89305 379.445 5.18101L356.332 2.08981L337.835 -12.1059C327.598 -19.9647 313.409 -19.9647 303.172 -12.1059L284.663 2.08981H284.687L261.633 5.16912C248.852 6.86927 238.793 16.9632 237.089 29.8036L234 53.0113C234 52.9994 226.852 62.4038 219.858 71.5942C212.047 81.8665 212.047 96.1335 219.858 106.406V106.406Z" stroke="#F2242B" stroke-opacity="0.8" stroke-width="7.5" stroke-linecap="round" stroke-linejoin="round"/>
<path fill-rule="evenodd" clip-rule="evenodd" d="M183.003 112.587L202.324 137.786L206.496 169.155C208.808 186.556 222.534 200.25 239.996 202.57L271.556 206.775L296.827 226.013C310.812 236.662 330.198 236.662 344.183 226.013L369.47 206.759H369.438L400.933 202.603C418.395 200.299 432.138 186.62 434.466 169.219L438.67 137.77C438.67 137.786 448.435 125.042 457.991 112.587C468.678 98.6508 468.662 79.3331 457.991 65.3966L438.702 40.1981L434.531 8.82888C432.219 -8.5716 418.492 -22.2664 401.03 -24.5865L369.454 -28.7755L344.183 -48.0127C330.198 -58.6624 310.812 -58.6624 296.827 -48.0127L271.54 -28.7755H271.572L240.077 -24.6026C222.615 -22.2986 208.872 -8.61993 206.544 8.78055L202.324 40.2303C202.324 40.2142 192.559 52.9584 183.003 65.4127C172.332 79.3331 172.332 98.6669 183.003 112.587V112.587Z" stroke="#F2242B" stroke-opacity="0.6" stroke-width="7.5" stroke-linecap="round" stroke-linejoin="round"/>
<path fill-rule="evenodd" clip-rule="evenodd" d="M147.093 126.35L171.46 158.239L176.721 197.938C179.637 219.958 196.949 237.289 218.971 240.225L258.773 245.547L290.644 269.892C308.282 283.369 332.731 283.369 350.369 269.892L382.26 245.527H382.219L421.94 240.266C443.962 237.35 461.294 220.04 464.23 198.019L469.532 158.219C469.532 158.239 481.848 142.111 493.899 126.35C507.377 108.713 507.357 84.2663 493.899 66.6295L469.573 34.7403L464.312 -4.95793C461.396 -26.9785 444.084 -44.3096 422.062 -47.2457L382.239 -52.5469L350.369 -76.8919C332.731 -90.3694 308.282 -90.3694 290.644 -76.8919L258.753 -52.5469H258.794L219.073 -47.266C197.051 -44.3504 179.719 -27.0397 176.782 -5.01909L171.46 34.7811C171.46 34.7607 159.144 50.8888 147.093 66.6498C133.636 84.2663 133.636 108.734 147.093 126.35V126.35Z" stroke="#F2242B" stroke-opacity="0.4" stroke-width="7.5" stroke-linecap="round" stroke-linejoin="round"/>
<path fill-rule="evenodd" clip-rule="evenodd" d="M111.184 132.532L140.597 171.024L146.947 218.944C150.466 245.524 171.363 266.444 197.946 269.989L245.991 276.412L284.461 305.799C305.752 322.067 335.263 322.067 356.554 305.799L395.049 276.388H395L442.947 270.038C469.529 266.518 490.45 245.623 493.995 219.042L500.394 171C500.394 171.024 515.261 151.557 529.807 132.532C546.077 111.242 546.052 81.7329 529.807 60.4437L500.443 21.9509L494.093 -25.9683C490.574 -52.549 469.677 -73.4691 443.094 -77.0132L395.025 -83.4122L356.554 -112.799C335.263 -129.067 305.752 -129.067 284.461 -112.799L245.966 -83.4122H246.015L198.069 -77.0378C171.486 -73.5183 150.565 -52.6229 147.021 -26.0421L140.597 22.0001C140.597 21.9755 125.73 41.4434 111.184 60.4683C94.9388 81.7329 94.9388 111.267 111.184 132.532V132.532Z" stroke="#F2242B" stroke-opacity="0.2" stroke-width="7.5" stroke-linecap="round" stroke-linejoin="round"/>
<path fill-rule="evenodd" clip-rule="evenodd" d="M75.2738 138.713L109.733 183.81L117.172 239.95C121.296 271.091 145.778 295.6 176.92 299.752L233.208 307.277L278.279 341.705C303.222 360.765 337.796 360.765 362.739 341.705L407.839 307.249H407.781L463.953 299.809C495.096 295.686 519.607 271.206 523.759 240.065L531.256 183.781C531.256 183.81 548.673 161.002 565.715 138.713C584.776 113.772 584.747 79.1995 565.715 54.258L531.314 9.1614L523.874 -46.9787C519.751 -78.1195 495.269 -102.629 464.126 -106.781L407.81 -114.278L362.739 -148.705C337.796 -167.765 303.222 -167.765 278.279 -148.705L233.179 -114.278H233.237L177.065 -106.809C145.922 -102.686 121.411 -78.206 117.259 -47.0652L109.733 9.21907C109.733 9.19024 92.3158 31.998 75.2738 54.2868C56.2421 79.1995 56.2421 113.8 75.2738 138.713V138.713Z" stroke="#F2242B" stroke-opacity="0.05" stroke-width="7.5" stroke-linecap="round" stroke-linejoin="round"/>
<path fill-rule="evenodd" clip-rule="evenodd" d="M21.3816 148.404L63.3431 203.319L72.4026 271.683C77.424 309.604 107.236 339.449 145.159 344.505L213.702 353.669L268.586 395.593C298.96 418.802 341.062 418.802 371.436 395.593L426.355 353.634H426.284L494.687 344.575C532.61 339.554 562.458 309.744 567.514 271.823L576.644 203.284C576.644 203.319 597.853 175.546 618.605 148.404C641.816 118.032 641.781 75.9328 618.605 45.5608L576.714 -9.35451L567.654 -77.7177C562.633 -115.639 532.821 -145.484 494.898 -150.54L426.319 -159.669L371.436 -201.593C341.062 -224.802 298.96 -224.802 268.586 -201.593L213.667 -159.669H213.738L145.335 -150.575C107.412 -145.554 77.5644 -115.744 72.508 -77.8231L63.3431 -9.28427C63.3431 -9.31939 42.1341 18.4543 21.3816 45.5959C-1.79386 75.9328 -1.79386 118.067 21.3816 148.404V148.404Z" stroke="#F2242B" stroke-opacity="0.02" stroke-width="7.5" stroke-linecap="round" stroke-linejoin="round"/>
</svg>
