<svg width="40" height="48" viewBox="0 0 40 48" fill="none" xmlns="http://www.w3.org/2000/svg">
<g id="Logotipo">
<path id="Vector" fill-rule="evenodd" clip-rule="evenodd" d="M0.282827 15.7092V47.84L6.75578 46.711C7.55381 46.6243 8.35187 46.2768 9.06124 45.7558C9.68191 45.2349 10.1253 44.5402 10.3913 43.6717L19.613 8.2409L4.36166 10.9329C3.20896 11.1066 2.14491 11.7145 1.43554 12.5829C0.726179 13.4513 0.282827 14.5802 0.282827 15.7092Z" fill="#B8000C"/>
<path id="Vector_2" fill-rule="evenodd" clip-rule="evenodd" d="M10.3914 43.6717L19.8792 6.9383C20.1452 6.15674 20.5885 5.46202 21.2092 4.85411C21.8299 4.33309 22.628 3.98573 23.426 3.81205L39.4754 1.12V37.3325L31.1403 38.7219L13.3176 41.7613C12.1648 42.0218 10.6574 42.5427 10.3914 43.6717Z" fill="#F2242B"/>
<path id="Vector_3" fill-rule="evenodd" clip-rule="evenodd" d="M35.7511 11.1935C28.8349 14.8407 20.2339 20.659 16.8644 24.0458L13.4063 32.0351L15.0023 25.9563L8.44069 19.5301C8.44069 19.5301 8.35203 19.4433 8.26337 19.4433C8.17471 19.4433 8.17471 19.4433 8.08601 19.4433C7.99735 19.4433 7.99735 19.4433 7.90869 19.4433C7.82002 19.4433 7.82002 19.5301 7.73133 19.5301L2.85445 24.3063C2.76578 24.3932 2.76578 24.48 2.76578 24.5669C2.76578 24.6537 2.76578 24.7405 2.85445 24.8274L12.6969 34.4666C18.3718 27.3457 28.1256 18.1407 36.1946 11.8013C36.2831 11.7145 36.372 11.6277 36.372 11.5408C36.372 11.454 36.372 11.3671 36.2831 11.2803C36.1946 11.1935 36.106 11.1066 36.0171 11.1066C35.9286 11.1066 35.84 11.1066 35.7511 11.1935Z" fill="white"/>
</g>
</svg>
