<svg width="56" height="69" viewBox="0 0 56 69" fill="none" xmlns="http://www.w3.org/2000/svg">
<g id="Logotipo" clip-path="url(#clip0_146_1387)">
<path id="Vector" fill-rule="evenodd" clip-rule="evenodd" d="M0.395958 22.6914V68.2101L9.45809 66.6107C10.5753 66.4878 11.6926 65.9955 12.6857 65.2575C13.5547 64.5195 14.1754 63.5353 14.5478 62.3049L27.4582 12.1113L6.10633 15.925C4.49254 16.1711 3.00287 17.0323 2.00976 18.2625C1.01665 19.4927 0.395958 21.092 0.395958 22.6914Z" fill="#F7F7F7"/>
<path id="Vector_2" fill-rule="evenodd" clip-rule="evenodd" d="M14.548 62.3045L27.8308 10.2655C28.2033 9.15833 28.824 8.17414 29.6929 7.31294C30.5619 6.57482 31.6792 6.08273 32.7964 5.83668L55.2655 2.02295V53.324L43.5965 55.2923L18.6446 59.5981C17.0307 59.9671 14.9204 60.7051 14.548 62.3045Z" fill="white"/>
<path id="Vector_3" fill-rule="evenodd" clip-rule="evenodd" d="M50.0516 16.2939C40.3689 21.4609 28.3274 29.7035 23.6102 34.5014L18.7688 45.8196L21.0033 37.2079L11.817 28.1042C11.817 28.1042 11.6928 27.9811 11.5687 27.9811C11.4446 27.9811 11.4446 27.9811 11.3204 27.9811C11.1963 27.9811 11.1963 27.9811 11.0722 27.9811C10.948 27.9811 10.948 28.1042 10.8239 28.1042L3.99623 34.8705C3.87209 34.9935 3.87209 35.1165 3.87209 35.2395C3.87209 35.3626 3.87209 35.4856 3.99623 35.6086L17.7756 49.2641C25.7205 39.1763 39.3758 26.1358 50.6724 17.1551C50.7964 17.0321 50.9209 16.909 50.9209 16.786C50.9209 16.663 50.9209 16.54 50.7964 16.4169C50.6724 16.2939 50.5484 16.1709 50.424 16.1709C50.3 16.1709 50.176 16.1709 50.0516 16.2939Z" fill="#DA1118"/>
</g>
<defs>
<clipPath id="clip0_146_1387">
<rect width="56" height="68" fill="white" transform="translate(0 0.436523)"/>
</clipPath>
</defs>
</svg>
