<svg width="222" height="244" viewBox="0 0 222 244" fill="none" xmlns="http://www.w3.org/2000/svg">
<g filter="url(#filter0_d_354_993)">
<rect x="31.5736" y="19.5154" width="120" height="120" rx="60" transform="rotate(15 31.5736 19.5154)" fill="#FFE5E6" shape-rendering="crispEdges"/>
<g clip-path="url(#clip0_354_993)">
<path d="M86.7049 113.688C85.5302 113.376 84.4289 112.835 83.4645 112.095C82.5001 111.355 81.6917 110.432 81.086 109.378L74.4038 97.8044C74.163 97.4108 73.7802 97.1248 73.3345 97.0054C72.8888 96.886 72.4142 96.9423 72.0088 97.1627L60.3909 103.87C59.3396 104.48 58.1779 104.876 56.9727 105.035C55.7676 105.193 54.543 105.111 53.3697 104.794L51.5702 104.311L60.0343 118.972C62.6753 123.546 68.5303 125.115 73.1047 122.474L87.8046 113.983L86.7049 113.688ZM62.0303 72.4717C64.421 73.1123 66.4146 74.6434 67.6492 76.7818L74.3568 88.3998C74.472 88.5997 74.6255 88.7749 74.8085 88.9154C74.9915 89.0559 75.2004 89.159 75.4232 89.2187C75.6461 89.2784 75.8785 89.2936 76.1072 89.2634C76.336 89.2332 76.5565 89.1582 76.7562 89.0427L88.33 82.3605C89.3806 81.7507 90.5416 81.3551 91.746 81.1964C92.9503 81.0377 94.1742 81.1192 95.3469 81.4361L96.4466 81.7308L87.9603 67.032C86.6908 64.835 84.6009 63.232 82.15 62.5752C79.6991 61.9185 77.0877 62.2619 74.8898 63.5298L60.2296 71.9939L62.0303 72.4717Z" fill="#F2242B"/>
<path d="M103.47 93.89L98.341 85.0057C98.1664 85.0281 97.9891 85.017 97.8187 84.9729L94.6326 84.1192C92.9852 83.6778 91.1933 83.915 89.7206 84.769L78.1467 91.4511C77.6314 91.7504 77.0621 91.945 76.4714 92.0235C75.8807 92.1021 75.2803 92.0631 74.7047 91.9089C74.1291 91.7546 73.5897 91.4882 73.1174 91.1248C72.6451 90.7614 72.2493 90.3083 71.9527 89.7915L65.2463 78.1692C64.3844 76.6835 62.9708 75.5981 61.3129 75.1492L57.4009 74.101C57.239 74.0563 57.0868 73.9823 56.9515 73.8828L48.033 79.0356C43.4586 81.6766 41.8897 87.5316 44.5296 92.1104L49.6781 101.028C49.8436 101.008 50.0113 101.018 50.1731 101.058L54.0895 102.107C55.7412 102.55 57.5277 102.316 59.0047 101.463L70.6195 94.7498C71.6683 94.1781 72.8969 94.0317 74.0507 94.3408C75.2046 94.65 76.1953 95.3911 76.8178 96.4107L83.5 107.985C84.3484 109.46 85.7828 110.558 87.4302 110.999L90.6163 111.853C90.7902 111.899 90.948 111.988 91.0839 112.09L99.9682 106.96C104.543 104.319 106.111 98.4644 103.47 93.89Z" fill="#F2242B"/>
</g>
</g>
<g filter="url(#filter1_d_354_993)">
<rect x="48.5153" y="40.5737" width="120" height="120" rx="60" transform="rotate(-15 48.5153 40.5737)" fill="#FFE5E6" shape-rendering="crispEdges"/>
<path d="M143.477 105.198C135.476 107.342 127.249 102.592 125.105 94.5913C122.962 86.5905 127.711 78.3639 135.712 76.2201C143.716 74.0756 151.939 78.826 154.083 86.8267C156.227 94.8275 151.48 103.053 143.477 105.198" stroke="#F2242B" stroke-width="4.5" stroke-linecap="round" stroke-linejoin="round"/>
<path d="M135.882 97.1389L143.307 84.2791" stroke="#F2242B" stroke-width="4.5" stroke-linecap="round" stroke-linejoin="round"/>
<path d="M89.023 75.8411L144.081 61.0884" stroke="#F2242B" stroke-width="4.5" stroke-linecap="round" stroke-linejoin="round"/>
<path d="M148.856 78.9098L142.645 55.7276C141.787 52.5255 138.498 50.6269 135.296 51.4849L91.8295 63.1318C88.6274 63.9898 86.7289 67.2782 87.5868 70.4802L94.575 96.5602C95.4329 99.7623 98.7214 101.661 101.923 100.803L125.106 94.5912" stroke="#F2242B" stroke-width="4.5" stroke-linecap="round" stroke-linejoin="round"/>
<path d="M146.388 93.9436C146.675 94.1093 146.774 94.4763 146.608 94.7632C146.442 95.0502 146.075 95.1485 145.788 94.9829C145.501 94.8172 145.403 94.4502 145.569 94.1632C145.734 93.8763 146.101 93.7779 146.388 93.9436" stroke="#F2242B" stroke-width="4.5" stroke-linecap="round" stroke-linejoin="round"/>
<path d="M133.403 86.4345C133.69 86.6002 133.789 86.9671 133.623 87.2541C133.457 87.5411 133.09 87.6394 132.803 87.4737C132.516 87.308 132.418 86.9411 132.584 86.6541C132.749 86.3671 133.116 86.2688 133.403 86.4345" stroke="#F2242B" stroke-width="4.5" stroke-linecap="round" stroke-linejoin="round"/>
</g>
<g filter="url(#filter2_d_354_993)">
<rect x="13.5153" y="-31.4264" width="120" height="120" rx="60" transform="rotate(-15 13.5153 -31.4264)" fill="#FFE5E6" shape-rendering="crispEdges"/>
<path d="M108.477 33.1978C100.476 35.3416 92.2492 30.5919 90.1054 22.5912C87.9616 14.5904 92.7113 6.36381 100.712 4.22001C108.716 2.07543 116.939 6.82585 119.083 14.8266C121.227 22.8274 116.48 31.0532 108.477 33.1978" stroke="#F2242B" stroke-width="4.5" stroke-linecap="round" stroke-linejoin="round"/>
<path d="M100.882 25.1388L108.307 12.279" stroke="#F2242B" stroke-width="4.5" stroke-linecap="round" stroke-linejoin="round"/>
<path d="M54.023 3.84098L109.081 -10.9117" stroke="#F2242B" stroke-width="4.5" stroke-linecap="round" stroke-linejoin="round"/>
<path d="M113.856 6.90966L107.645 -16.2726C106.787 -19.4746 103.498 -21.3732 100.296 -20.5152L56.8295 -8.86834C53.6274 -8.01036 51.7289 -4.72192 52.5868 -1.51987L59.575 24.5601C60.4329 27.7622 63.7214 29.6607 66.9234 28.8028L90.1057 22.5911" stroke="#F2242B" stroke-width="4.5" stroke-linecap="round" stroke-linejoin="round"/>
<path d="M111.388 21.9435C111.675 22.1092 111.774 22.4762 111.608 22.7631C111.442 23.0501 111.075 23.1484 110.788 22.9827C110.501 22.8171 110.403 22.4501 110.569 22.1631C110.734 21.8761 111.101 21.7778 111.388 21.9435" stroke="#F2242B" stroke-width="4.5" stroke-linecap="round" stroke-linejoin="round"/>
<path d="M98.4032 14.4344C98.6902 14.6 98.7885 14.967 98.6228 15.254C98.4572 15.5409 98.0902 15.6393 97.8032 15.4736C97.5163 15.3079 97.4179 14.9409 97.5836 14.654C97.7493 14.367 98.1163 14.2687 98.4032 14.4344" stroke="#F2242B" stroke-width="4.5" stroke-linecap="round" stroke-linejoin="round"/>
</g>
<g filter="url(#filter3_d_354_993)">
<rect x="146.038" y="115.039" width="120" height="120" rx="60" transform="rotate(-30 146.038 115.039)" fill="#FFE5E6" shape-rendering="crispEdges"/>
<path d="M194.294 138.62L243.657 110.12" stroke="#F2242B" stroke-width="4.5" stroke-linecap="round" stroke-linejoin="round"/>
<path d="M252.882 126.098L240.882 105.313C239.225 102.443 235.557 101.46 232.686 103.117L193.715 125.617C190.844 127.275 189.861 130.943 191.519 133.813L205.019 157.196C206.676 160.067 210.344 161.05 213.215 159.392L234 147.392" stroke="#F2242B" stroke-width="4.5" stroke-linecap="round" stroke-linejoin="round"/>
</g>
<g filter="url(#filter4_d_354_993)">
<rect x="152.515" y="-35.4264" width="120" height="120" rx="60" transform="rotate(-15 152.515 -35.4264)" fill="#FFE5E6" shape-rendering="crispEdges"/>
<g clip-path="url(#clip1_354_993)">
<path d="M247.347 18.5641C246.174 18.8812 244.949 18.963 243.744 18.8045C242.539 18.646 241.377 18.2505 240.326 17.6408L228.752 10.9587C228.346 10.7383 227.872 10.682 227.426 10.8014C226.981 10.9208 226.598 11.2069 226.357 11.6004L219.649 23.2183C219.044 24.2724 218.236 25.196 217.271 25.9358C216.307 26.6756 215.205 27.217 214.03 27.5285L212.231 28.0107L226.891 36.4747C231.465 39.1158 237.32 37.5469 239.961 32.9725L248.447 18.2694L247.347 18.5641ZM205.37 -4.79332C207.76 -5.4339 210.252 -5.10469 212.391 -3.87008L224.009 2.83753C224.209 2.95306 224.429 3.02806 224.658 3.05827C224.887 3.08848 225.119 3.0733 225.342 3.01358C225.565 2.95387 225.774 2.8508 225.957 2.71028C226.14 2.56975 226.293 2.39453 226.408 2.19463L233.09 -9.37921C233.695 -10.4326 234.503 -11.3558 235.467 -12.0953C236.43 -12.8349 237.531 -13.3763 238.705 -13.6882L239.805 -13.9829L225.106 -22.4692C222.908 -23.7371 220.297 -24.0805 217.846 -23.4238C215.395 -22.767 213.305 -21.164 212.035 -18.967L203.571 -4.30679L205.37 -4.79332Z" fill="#F2242B"/>
<path d="M251.967 -6.96453L243.083 -12.0939C242.943 -11.9871 242.784 -11.9081 242.614 -11.8611L239.428 -11.0074C237.78 -10.566 236.347 -9.46452 235.499 -7.98864L228.817 3.5852C228.52 4.10204 228.124 4.55517 227.652 4.91854C227.18 5.28192 226.64 5.54838 226.065 5.70261C225.489 5.85684 224.889 5.89579 224.298 5.81724C223.707 5.73869 223.138 5.54417 222.623 5.24488L211.004 -1.46709C209.514 -2.32283 207.747 -2.55595 206.087 -2.11573L202.175 -1.06751C202.013 -1.02535 201.844 -1.01326 201.677 -1.03184L196.53 7.88987C193.889 12.4643 195.457 18.3193 200.033 20.9646L208.95 26.1131C209.084 26.0129 209.234 25.9379 209.394 25.8917L213.311 24.8423C214.962 24.3997 216.392 23.3037 217.245 21.8267L223.947 10.2056C224.57 9.18602 225.56 8.44492 226.714 8.13574C227.868 7.82657 229.097 7.97301 230.146 8.54474L241.719 15.2269C243.192 16.0808 244.983 16.3138 246.63 15.8724L249.816 15.0186C249.99 14.9721 250.171 14.9701 250.34 14.9902L255.469 6.1059C258.11 1.53148 256.541 -4.32348 251.967 -6.96453Z" fill="#F2242B"/>
</g>
</g>
<g filter="url(#filter5_d_354_993)">
<rect x="134.038" y="-16.9615" width="120" height="120" rx="60" transform="rotate(30 134.038 -16.9615)" fill="#FFE5E6" shape-rendering="crispEdges"/>
<path d="M155.49 95.8827C148.316 91.7412 145.858 82.5656 149.999 75.3924C154.141 68.2191 163.316 65.7605 170.49 69.902C177.666 74.045 180.122 83.2191 175.98 90.3924C171.839 97.5656 162.666 100.026 155.49 95.8827" stroke="#F2242B" stroke-width="4.5" stroke-linecap="round" stroke-linejoin="round"/>
<path d="M155.818 84.814L170.162 80.9707" stroke="#F2242B" stroke-width="4.5" stroke-linecap="round" stroke-linejoin="round"/>
<path d="M137.744 36.62L187.107 65.12" stroke="#F2242B" stroke-width="4.5" stroke-linecap="round" stroke-linejoin="round"/>
<path d="M177.882 81.0981L189.882 60.3135C191.54 57.4426 190.557 53.7748 187.686 52.1173L148.715 29.6173C145.844 27.9598 142.176 28.9426 140.519 31.8135L127.019 55.1961C125.361 58.067 126.344 61.7348 129.215 63.3923L150 75.3923" stroke="#F2242B" stroke-width="4.5" stroke-linecap="round" stroke-linejoin="round"/>
<path d="M165.507 89.9836C165.593 90.3037 165.403 90.6327 165.083 90.7184C164.762 90.8042 164.433 90.6143 164.348 90.2942C164.262 89.9741 164.452 89.6451 164.772 89.5593C165.092 89.4736 165.421 89.6635 165.507 89.9836" stroke="#F2242B" stroke-width="4.5" stroke-linecap="round" stroke-linejoin="round"/>
<path d="M161.635 75.4921C161.72 75.8122 161.53 76.1412 161.21 76.227C160.89 76.3127 160.561 76.1228 160.475 75.8027C160.39 75.4826 160.58 75.1536 160.9 75.0679C161.22 74.9821 161.549 75.1721 161.635 75.4921" stroke="#F2242B" stroke-width="4.5" stroke-linecap="round" stroke-linejoin="round"/>
</g>
<g filter="url(#filter6_d_354_993)">
<rect x="98.0386" y="222.962" width="120" height="120" rx="60" transform="rotate(-60 98.0386 222.962)" fill="#FFE5E6" shape-rendering="crispEdges"/>
<path d="M210.883 201.51C206.742 208.683 197.566 211.141 190.393 207C183.219 202.858 180.761 193.683 184.902 186.51C189.045 179.334 198.219 176.878 205.393 181.019C212.566 185.161 215.026 194.334 210.883 201.51" stroke="#F2242B" stroke-width="4.5" stroke-linecap="round" stroke-linejoin="round"/>
<path d="M199.814 201.181L195.971 186.838" stroke="#F2242B" stroke-width="4.5" stroke-linecap="round" stroke-linejoin="round"/>
<path d="M151.62 219.256L180.12 169.893" stroke="#F2242B" stroke-width="4.5" stroke-linecap="round" stroke-linejoin="round"/>
<path d="M196.098 179.117L175.314 167.117C172.443 165.46 168.775 166.443 167.118 169.314L144.618 208.285C142.96 211.156 143.943 214.823 146.814 216.481L170.196 229.981C173.067 231.638 176.735 230.656 178.393 227.785L190.393 207" stroke="#F2242B" stroke-width="4.5" stroke-linecap="round" stroke-linejoin="round"/>
<path d="M204.984 191.493C205.304 191.407 205.633 191.597 205.718 191.917C205.804 192.237 205.614 192.566 205.294 192.652C204.974 192.738 204.645 192.548 204.559 192.228C204.473 191.908 204.663 191.579 204.984 191.493" stroke="#F2242B" stroke-width="4.5" stroke-linecap="round" stroke-linejoin="round"/>
<path d="M190.493 195.365C190.813 195.279 191.142 195.469 191.227 195.789C191.313 196.109 191.123 196.438 190.803 196.524C190.483 196.61 190.154 196.42 190.068 196.1C189.983 195.78 190.172 195.451 190.493 195.365" stroke="#F2242B" stroke-width="4.5" stroke-linecap="round" stroke-linejoin="round"/>
</g>
<g filter="url(#filter7_d_354_993)">
<rect x="108.039" y="72.0386" width="120" height="120" rx="60" transform="rotate(30 108.039 72.0386)" fill="#FFE5E6" shape-rendering="crispEdges"/>
<g clip-path="url(#clip2_354_993)">
<path d="M136.918 177.272C135.864 176.666 134.94 175.858 134.2 174.894C133.46 173.93 132.918 172.829 132.606 171.654L129.147 158.745C129.016 158.303 128.72 157.927 128.321 157.697C127.921 157.466 127.448 157.397 126.999 157.505L114.041 160.978C112.868 161.295 111.643 161.376 110.438 161.218C109.233 161.059 108.071 160.663 107.02 160.052L105.407 159.121L109.788 175.472C111.155 180.574 116.405 183.605 121.507 182.238L137.904 177.841L136.918 177.272ZM123.751 131.073C125.895 132.311 127.424 134.306 128.063 136.691L131.535 149.649C131.595 149.872 131.698 150.081 131.838 150.264C131.979 150.447 132.154 150.601 132.354 150.716C132.553 150.831 132.774 150.906 133.003 150.936C133.231 150.966 133.464 150.951 133.687 150.891L146.596 147.432C147.768 147.115 148.992 147.033 150.196 147.192C151.401 147.35 152.562 147.745 153.613 148.355L154.599 148.924L150.206 132.53C149.548 130.079 147.944 127.99 145.747 126.721C143.549 125.453 140.938 125.108 138.487 125.764L122.136 130.146L123.751 131.073Z" fill="#F2242B"/>
<path d="M158.236 162.487L155.581 152.578C155.406 152.554 155.238 152.498 155.085 152.411L152.228 150.762C150.751 149.909 148.959 149.675 147.315 150.118L134.406 153.577C133.831 153.733 133.231 153.773 132.64 153.696C132.049 153.619 131.479 153.426 130.963 153.128C130.447 152.83 129.995 152.433 129.633 151.96C129.271 151.487 129.006 150.947 128.853 150.371L125.383 137.409C124.935 135.751 123.851 134.336 122.365 133.474L118.858 131.449C118.713 131.364 118.585 131.253 118.481 131.122L108.532 133.791C103.43 135.158 100.399 140.407 101.764 145.513L104.429 155.459C104.594 155.483 104.754 155.536 104.9 155.616L108.411 157.644C109.892 158.499 111.678 158.735 113.325 158.293L126.282 154.815C127.443 154.534 128.668 154.711 129.702 155.308C130.737 155.906 131.502 156.878 131.839 158.024L135.298 170.933C135.736 172.578 136.837 174.009 138.314 174.862L141.171 176.511C141.327 176.601 141.456 176.728 141.561 176.861L151.47 174.206C156.572 172.839 159.603 167.589 158.236 162.487Z" fill="#F2242B"/>
</g>
</g>
<defs>
<filter id="filter0_d_354_993" x="-5.48468" y="13.5154" width="158.969" height="158.969" filterUnits="userSpaceOnUse" color-interpolation-filters="sRGB">
<feFlood flood-opacity="0" result="BackgroundImageFix"/>
<feColorMatrix in="SourceAlpha" type="matrix" values="0 0 0 0 0 0 0 0 0 0 0 0 0 0 0 0 0 0 127 0" result="hardAlpha"/>
<feOffset/>
<feGaussianBlur stdDeviation="3"/>
<feComposite in2="hardAlpha" operator="out"/>
<feColorMatrix type="matrix" values="0 0 0 0 0.94902 0 0 0 0 0.141176 0 0 0 0 0.168627 0 0 0 0.25 0"/>
<feBlend mode="normal" in2="BackgroundImageFix" result="effect1_dropShadow_354_993"/>
<feBlend mode="normal" in="SourceGraphic" in2="effect1_dropShadow_354_993" result="shape"/>
</filter>
<filter id="filter1_d_354_993" x="17.9153" y="-21.0845" width="208.169" height="208.169" filterUnits="userSpaceOnUse" color-interpolation-filters="sRGB">
<feFlood flood-opacity="0" result="BackgroundImageFix"/>
<feColorMatrix in="SourceAlpha" type="matrix" values="0 0 0 0 0 0 0 0 0 0 0 0 0 0 0 0 0 0 127 0" result="hardAlpha"/>
<feOffset/>
<feGaussianBlur stdDeviation="15.3"/>
<feComposite in2="hardAlpha" operator="out"/>
<feColorMatrix type="matrix" values="0 0 0 0 0.94902 0 0 0 0 0.141176 0 0 0 0 0.168627 0 0 0 0.5 0"/>
<feBlend mode="normal" in2="BackgroundImageFix" result="effect1_dropShadow_354_993"/>
<feBlend mode="normal" in="SourceGraphic" in2="effect1_dropShadow_354_993" result="shape"/>
</filter>
<filter id="filter2_d_354_993" x="7.51532" y="-68.4846" width="158.969" height="158.969" filterUnits="userSpaceOnUse" color-interpolation-filters="sRGB">
<feFlood flood-opacity="0" result="BackgroundImageFix"/>
<feColorMatrix in="SourceAlpha" type="matrix" values="0 0 0 0 0 0 0 0 0 0 0 0 0 0 0 0 0 0 127 0" result="hardAlpha"/>
<feOffset/>
<feGaussianBlur stdDeviation="3"/>
<feComposite in2="hardAlpha" operator="out"/>
<feColorMatrix type="matrix" values="0 0 0 0 0.94902 0 0 0 0 0.141176 0 0 0 0 0.168627 0 0 0 0.25 0"/>
<feBlend mode="normal" in2="BackgroundImageFix" result="effect1_dropShadow_354_993"/>
<feBlend mode="normal" in="SourceGraphic" in2="effect1_dropShadow_354_993" result="shape"/>
</filter>
<filter id="filter3_d_354_993" x="140.038" y="49.0386" width="175.923" height="175.923" filterUnits="userSpaceOnUse" color-interpolation-filters="sRGB">
<feFlood flood-opacity="0" result="BackgroundImageFix"/>
<feColorMatrix in="SourceAlpha" type="matrix" values="0 0 0 0 0 0 0 0 0 0 0 0 0 0 0 0 0 0 127 0" result="hardAlpha"/>
<feOffset/>
<feGaussianBlur stdDeviation="3"/>
<feComposite in2="hardAlpha" operator="out"/>
<feColorMatrix type="matrix" values="0 0 0 0 0.94902 0 0 0 0 0.141176 0 0 0 0 0.168627 0 0 0 0.25 0"/>
<feBlend mode="normal" in2="BackgroundImageFix" result="effect1_dropShadow_354_993"/>
<feBlend mode="normal" in="SourceGraphic" in2="effect1_dropShadow_354_993" result="shape"/>
</filter>
<filter id="filter4_d_354_993" x="146.515" y="-72.4846" width="158.969" height="158.969" filterUnits="userSpaceOnUse" color-interpolation-filters="sRGB">
<feFlood flood-opacity="0" result="BackgroundImageFix"/>
<feColorMatrix in="SourceAlpha" type="matrix" values="0 0 0 0 0 0 0 0 0 0 0 0 0 0 0 0 0 0 127 0" result="hardAlpha"/>
<feOffset/>
<feGaussianBlur stdDeviation="3"/>
<feComposite in2="hardAlpha" operator="out"/>
<feColorMatrix type="matrix" values="0 0 0 0 0.94902 0 0 0 0 0.141176 0 0 0 0 0.168627 0 0 0 0.25 0"/>
<feBlend mode="normal" in2="BackgroundImageFix" result="effect1_dropShadow_354_993"/>
<feBlend mode="normal" in="SourceGraphic" in2="effect1_dropShadow_354_993" result="shape"/>
</filter>
<filter id="filter5_d_354_993" x="43.4385" y="-47.5615" width="225.123" height="225.123" filterUnits="userSpaceOnUse" color-interpolation-filters="sRGB">
<feFlood flood-opacity="0" result="BackgroundImageFix"/>
<feColorMatrix in="SourceAlpha" type="matrix" values="0 0 0 0 0 0 0 0 0 0 0 0 0 0 0 0 0 0 127 0" result="hardAlpha"/>
<feOffset/>
<feGaussianBlur stdDeviation="15.3"/>
<feComposite in2="hardAlpha" operator="out"/>
<feColorMatrix type="matrix" values="0 0 0 0 0.94902 0 0 0 0 0.141176 0 0 0 0 0.168627 0 0 0 0.19 0"/>
<feBlend mode="normal" in2="BackgroundImageFix" result="effect1_dropShadow_354_993"/>
<feBlend mode="normal" in="SourceGraphic" in2="effect1_dropShadow_354_993" result="shape"/>
</filter>
<filter id="filter6_d_354_993" x="92.0386" y="113.039" width="175.923" height="175.923" filterUnits="userSpaceOnUse" color-interpolation-filters="sRGB">
<feFlood flood-opacity="0" result="BackgroundImageFix"/>
<feColorMatrix in="SourceAlpha" type="matrix" values="0 0 0 0 0 0 0 0 0 0 0 0 0 0 0 0 0 0 127 0" result="hardAlpha"/>
<feOffset/>
<feGaussianBlur stdDeviation="3"/>
<feComposite in2="hardAlpha" operator="out"/>
<feColorMatrix type="matrix" values="0 0 0 0 0.94902 0 0 0 0 0.141176 0 0 0 0 0.168627 0 0 0 0.25 0"/>
<feBlend mode="normal" in2="BackgroundImageFix" result="effect1_dropShadow_354_993"/>
<feBlend mode="normal" in="SourceGraphic" in2="effect1_dropShadow_354_993" result="shape"/>
</filter>
<filter id="filter7_d_354_993" x="20.2386" y="44.2386" width="219.523" height="219.523" filterUnits="userSpaceOnUse" color-interpolation-filters="sRGB">
<feFlood flood-opacity="0" result="BackgroundImageFix"/>
<feColorMatrix in="SourceAlpha" type="matrix" values="0 0 0 0 0 0 0 0 0 0 0 0 0 0 0 0 0 0 127 0" result="hardAlpha"/>
<feOffset/>
<feGaussianBlur stdDeviation="13.9"/>
<feComposite in2="hardAlpha" operator="out"/>
<feColorMatrix type="matrix" values="0 0 0 0 0.94902 0 0 0 0 0.141176 0 0 0 0 0.168627 0 0 0 0.25 0"/>
<feBlend mode="normal" in2="BackgroundImageFix" result="effect1_dropShadow_354_993"/>
<feBlend mode="normal" in="SourceGraphic" in2="effect1_dropShadow_354_993" result="shape"/>
</filter>
<clipPath id="clip0_354_993">
<rect width="72" height="72" fill="white" transform="translate(48.5442 48.9093) rotate(15)"/>
</clipPath>
<clipPath id="clip1_354_993">
<rect width="72" height="72" fill="white" transform="translate(181.909 -18.4558) rotate(-15)"/>
</clipPath>
<clipPath id="clip2_354_993">
<rect width="72" height="72" fill="white" transform="translate(116.823 104.823) rotate(30)"/>
</clipPath>
</defs>
</svg>
